<svg width="20" height="20" viewBox="0 0 20 20" fill="none" xmlns="http://www.w3.org/2000/svg">
<path d="M18.742 11.045C18.0643 11.225 17.3662 11.3161 16.665 11.316C14.53 11.316 12.525 10.486 11.019 8.98001C10.0301 7.98536 9.31907 6.74887 8.95692 5.39381C8.59478 4.03874 8.59411 2.61242 8.955 1.25701C9.00007 1.08755 8.99979 0.909206 8.95417 0.739884C8.90856 0.570562 8.81922 0.416212 8.69513 0.292316C8.57103 0.16842 8.41653 0.0793356 8.24714 0.0339989C8.07774 -0.0113379 7.8994 -0.0113329 7.73 0.0340134C6.03316 0.486197 4.48507 1.37664 3.241 2.61601C-0.656995 6.51401 -0.656995 12.859 3.241 16.759C4.16753 17.6907 5.26964 18.4294 6.48354 18.9323C7.69745 19.4353 8.99904 19.6924 10.313 19.689C11.6266 19.6927 12.9279 19.4357 14.1415 18.9329C15.3551 18.4302 16.4569 17.6916 17.383 16.76C18.6233 15.5157 19.5142 13.9668 19.966 12.269C20.0109 12.0996 20.0105 11.9214 19.9649 11.7522C19.9193 11.583 19.8301 11.4287 19.7062 11.3048C19.5823 11.1809 19.428 11.0917 19.2588 11.0461C19.0896 11.0005 18.9114 11.0001 18.742 11.045ZM15.97 15.346C15.229 16.0911 14.3475 16.6818 13.3767 17.084C12.4058 17.4862 11.3649 17.6918 10.314 17.689C9.2628 17.6916 8.2215 17.4858 7.25033 17.0835C6.27916 16.6811 5.39739 16.0903 4.656 15.345C1.538 12.226 1.538 7.15001 4.656 4.03101C5.25851 3.42918 5.9541 2.92843 6.716 2.54801C6.60448 3.98707 6.80496 5.43325 7.30373 6.7877C7.80251 8.14216 8.58782 9.37297 9.606 10.396C10.6268 11.4174 11.8573 12.2049 13.2123 12.704C14.5673 13.2032 16.0146 13.4021 17.454 13.287C17.0715 14.0476 16.5706 14.7426 15.97 15.346Z" fill="#8D8EA0"/>
</svg>
